# xmcd
#
# Track frame offsets: 
#        150
#        22716
#        39313
#        63723
#        89040
#        106084
#        120737
#        134328
#        151205
#        170924
#        189969
#        205364
#
# Disc length: 2957 seconds
#
# Revision: 0
# Processed by: cddbd v1.4PL0 Copyright (c) Steve Scherf et al.
# Submitted via: ExactAudioCopy v0.90b4
#
DISCID=a00b8b0c
DTITLE=Elvis T. Busboy and The Blues Butchers - E.T.B II
DYEAR=2002
DGENRE=Blues
TTITLE0=Back Door Man
TTITLE1=The Unlearning
TTITLE2=Don't Change Horses
TTITLE3=Oklahoma 3/4 Moon
TTITLE4=Cowgirl Cajun Queen
TTITLE5=Two More Bottles Of Wine
TTITLE6=Johnson Grass Farm
TTITLE7=Monkey Time
TTITLE8=Ain't No Sunshine
TTITLE9=Good Work
TTITLE10=I'll Be Around
TTITLE11=Proud Of The Blues
EXTD=
EXTT0=
EXTT1=
EXTT2=
EXTT3=
EXTT4=
EXTT5=
EXTT6=
EXTT7=
EXTT8=
EXTT9=
EXTT10=
EXTT11=
PLAYORDER=
